# xmcd
# 
# Track frame offsets:
#     150
#     15490
#     30992
#     50025
#     62085
#     75217
#     84297
#     98402
#     114267
#     128910
#     142987
# 
# Disc length: 2117
# 
# Revision: 1
# Processed by: cddbd v1.5.2PL0 Copyright (c) Steve Scherf et al.
# Submitted via: fre:ac v1.0.31
# 
DISCID=7308430b
DTITLE=ブレッド＆バター - バーベキュー
DYEAR=1993
DGENRE=JPop
TTITLE0=魔術
TTITLE1=ピンク・シャドウ
TTITLE2=愛の歌
TTITLE3=飛行室
TTITLE4=うつろな安息日
TTITLE5=アフターバーベキュー
TTITLE6=地下鉄
TTITLE7=夕暮れ(つらい夜)
TTITLE8=子豚と××××
TTITLE9=メモリー
TTITLE10=朝の陽
EXTD=
EXTT0=
EXTT1=
EXTT2=
EXTT3=
EXTT4=
EXTT5=
EXTT6=
EXTT7=
EXTT8=
EXTT9=
EXTT10=
PLAYORDER=
